<?xml version="1.0" encoding="UTF-8" standalone="no"?>
<svg width="100px" height="100px" viewBox="0 0 300 300" version="1.1" xmlns="http://www.w3.org/2000/svg" xmlns:xlink="http://www.w3.org/1999/xlink">
    <!-- Generator: Sketch 3.7.1 (28215) - http://www.bohemiancoding.com/sketch -->
    <title>GS-icon-black-fill</title>
    <desc>Created with Sketch.</desc>
    <defs></defs>
    <g id="Final-Style" stroke="none" stroke-width="1" fill="none" fill-rule="evenodd">
        <g id="GS-icon-black-fill">
            <g id="Group-4">
                <rect id="Rectangle-37-Copy-4" fill="#000000" x="0" y="0" width="300" height="300" rx="8"></rect>
                <g id="Group" transform="translate(39.000000, 42.000000)" fill="#FFFFFF">
                    <path d="M144.652576,33.9998025 L64.9124577,33.9998025 C63.470007,33.9998025 62.1371276,34.7722219 61.4159023,36.0260977 L21.5458431,105.341611 C20.8246177,106.595487 20.8246177,108.140326 21.5458431,109.394202 L61.4159023,178.709716 C62.1371276,179.963591 63.470007,180.736011 64.9124577,180.736011 L144.652576,180.736011 C146.095027,180.736011 147.427906,179.963591 148.149132,178.709716 L188.019191,109.394202 C188.740416,108.140326 188.740416,106.595487 188.019191,105.341611 L148.149132,36.0260977 C147.427906,34.7722219 146.095027,33.9998025 144.652576,33.9998025 Z M159.226623,33.9998025 L185.081958,33.9998025 C186.524409,33.9998025 187.857288,34.7722219 188.578513,36.0260977 L228.448573,105.341611 C229.169798,106.595487 229.169798,108.140326 228.448573,109.394202 L188.578513,178.709716 C187.857288,179.963591 186.524409,180.736011 185.081958,180.736011 L159.226623,180.736011 L200.156815,109.577419 C200.943253,108.210168 200.943253,106.525645 200.156815,105.158395 L159.226623,33.9998025 Z M140.916713,190.051511 L127.989045,212.442888 C127.26782,213.692087 125.932446,214.460185 124.485945,214.457846 L44.5219193,214.328573 C43.0754183,214.326235 41.7375487,213.553816 41.012273,212.302278 L0.918306905,143.116037 C0.193031236,141.8645 0.190536124,140.323983 0.911761452,139.074784 L13.8394292,116.683406 L54.9994818,187.709289 C55.7903365,189.073989 57.2491757,189.916251 58.8264687,189.918801 L140.916713,190.051511 Z M13.6024314,98.5371569 L0.674763665,76.1457795 C-0.0464616635,74.8965806 -0.0439665508,73.3560635 0.681309118,72.1045261 L40.7752752,2.9182851 C41.5005509,1.66674772 42.8384205,0.894328352 44.2849215,0.891989887 L124.248947,0.762717189 C125.695448,0.760378724 127.030822,1.52847643 127.752048,2.77767535 L140.679715,25.1690527 L58.5894709,25.3017628 C57.0121779,25.3043127 55.5533387,26.1465739 54.762484,27.5112747 L13.6024314,98.5371569 Z" id="Combined-Shape-Copy-11"></path>
                </g>
            </g>
        </g>
    </g>
</svg>